<?xml version="1.0" standalone="no"?>
<!DOCTYPE svg PUBLIC "-//W3C//DTD SVG 20010904//EN"
 "http://www.w3.org/TR/2001/REC-SVG-20010904/DTD/svg10.dtd">
<svg version="1.0" xmlns="http://www.w3.org/2000/svg"
 width="230.000000pt" height="348.000000pt" viewBox="0 0 230.000000 348.000000"
 preserveAspectRatio="xMidYMid meet">
<metadata>
Created by potrace 1.15, written by Peter Selinger 2001-2017
</metadata>
<g transform="translate(0.000000,348.000000) scale(0.100000,-0.100000)"
fill="#F23120" stroke="none">
<path d="M1066 3093 c-32 -70 -253 -570 -492 -1110 l-434 -983 0 -359 c0 -308
2 -361 15 -368 24 -14 632 34 684 53 54 21 116 75 141 124 10 20 51 71 91 114
l72 77 74 -73 c41 -40 87 -97 103 -125 33 -59 93 -108 151 -123 41 -11 633
-57 662 -52 16 3 17 32 17 373 l0 370 -429 972 c-576 1303 -543 1231 -573
1235 -22 3 -29 -8 -82 -125z m37 -140 c-58 -904 -91 -1405 -94 -1408 -9 -8
-764 -473 -766 -471 -1 1 184 425 413 942 228 516 421 954 429 972 8 17 16 32
18 32 2 0 2 -30 0 -67z m532 -928 c224 -506 409 -928 412 -938 3 -10 -140 73
-368 214 -206 127 -379 236 -386 242 -10 10 -77 953 -98 1377 l-5 105 19 -40
c10 -22 202 -454 426 -960z m-421 -445 c3 -52 19 -279 36 -503 16 -224 30
-425 30 -445 l0 -36 -50 49 -50 49 1 686 c2 737 0 728 33 200z m-151 -932
c-26 -26 -48 -46 -50 -44 -2 1 13 216 32 477 19 261 40 573 47 694 l13 220 3
-650 2 -649 -47 -48z m-115 770 c-8 -13 -102 -168 -208 -346 -173 -288 -197
-325 -229 -338 -42 -18 -51 -29 -51 -71 0 -54 60 -81 108 -47 17 12 22 25 22
59 0 39 22 80 202 380 111 186 204 332 206 325 7 -20 -48 -823 -59 -863 -13
-47 -73 -115 -118 -134 -32 -14 -452 -52 -573 -53 l-48 0 0 323 0 322 373 232
c204 127 376 232 381 232 4 1 2 -9 -6 -21z m787 -220 l360 -224 3 -322 2 -322
-47 0 c-27 0 -161 9 -300 20 -206 16 -259 23 -291 39 -42 22 -88 70 -103 109
-5 13 -20 191 -34 395 -14 205 -28 404 -31 442 -4 39 -4 68 -1 65 3 -3 97
-159 210 -347 186 -309 205 -346 200 -377 -11 -68 73 -104 116 -50 12 15 21
34 21 43 0 27 -28 59 -59 66 -25 5 -53 47 -235 350 -113 189 -206 346 -206
350 0 8 -9 14 395 -237z"/>
</g>
</svg>
