<?xml version="1.0" standalone="no"?>
<!DOCTYPE svg PUBLIC "-//W3C//DTD SVG 20010904//EN"
 "http://www.w3.org/TR/2001/REC-SVG-20010904/DTD/svg10.dtd">
<svg version="1.0" xmlns="http://www.w3.org/2000/svg"
 width="165.000000pt" height="165.000000pt" viewBox="0 0 165.000000 165.000000"
 preserveAspectRatio="xMidYMid meet">
<metadata>
Created by potrace 1.11, written by Peter Selinger 2001-2013
</metadata>
<g transform="translate(0.000000,165.000000) scale(0.100000,-0.100000)"
fill="#000000" stroke="none">
<path d="M1339 1603 c-19 -15 -238 -201 -488 -412 l-453 -384 -84 -171 c-46
-93 -81 -173 -76 -177 15 -14 321 -129 343 -129 12 0 54 16 93 35 101 49 115
49 133 0 8 -22 18 -64 23 -94 6 -33 18 -64 32 -78 24 -26 289 -183 308 -183 6
0 47 75 91 168 l81 167 22 635 c13 349 20 639 16 643 -4 4 -22 -4 -41 -20z
m-215 -399 c-103 -181 -189 -332 -193 -335 -7 -8 -445 -53 -460 -47 -5 1 180
164 412 360 232 196 423 355 425 354 1 -2 -81 -151 -184 -332z m214 -239 c-10
-302 -21 -552 -24 -554 -2 -2 -5 -2 -7 0 -18 23 -247 392 -247 398 0 5 61 156
136 337 75 181 140 340 145 353 5 13 11 22 13 20 2 -2 -5 -251 -16 -554z
m-281 38 c-2 -5 -64 -133 -137 -285 -120 -247 -137 -279 -164 -288 -16 -5 -31
-8 -33 -6 -3 2 54 105 125 228 71 122 146 253 166 291 21 37 40 67 42 67 3 0
4 -3 1 -7z m-87 -328 c-119 -296 -129 -318 -139 -292 -6 16 -11 34 -11 40 0
13 272 579 276 574 2 -1 -55 -146 -126 -322z m-100 150 c0 -11 -351 -235 -360
-230 -26 16 -59 -27 -39 -51 16 -20 50 -17 56 4 3 15 337 242 355 242 13 0
-205 -376 -233 -402 -43 -40 -79 -36 -239 28 -129 52 -140 58 -134 78 4 11 37
82 74 156 l68 135 198 21 c222 24 254 26 254 19z m324 -289 l119 -187 -73
-155 c-40 -85 -75 -154 -77 -154 -12 0 -259 149 -278 168 -45 45 -42 63 52
302 63 161 89 217 94 204 4 -11 15 -105 24 -211 12 -153 13 -196 3 -212 -15
-25 5 -53 36 -49 26 4 34 43 13 66 -9 11 -18 67 -26 167 -7 83 -14 177 -17
210 -3 33 -2 55 3 49 4 -6 61 -95 127 -198z"/>
</g>
</svg>
